<svg width="1463" height="318" viewBox="0 0 1463 318" fill="none" xmlns="http://www.w3.org/2000/svg">
<path d="M466.165 287H434.619V193.909H466.801C476.044 193.909 483.983 195.773 490.619 199.5C497.286 203.197 502.407 208.515 505.983 215.455C509.559 222.394 511.347 230.697 511.347 240.364C511.347 250.061 509.544 258.394 505.938 265.364C502.362 272.333 497.195 277.682 490.438 281.409C483.71 285.136 475.619 287 466.165 287ZM451.483 272.409H465.347C471.831 272.409 477.241 271.227 481.574 268.864C485.907 266.47 489.165 262.909 491.347 258.182C493.528 253.424 494.619 247.485 494.619 240.364C494.619 233.242 493.528 227.333 491.347 222.636C489.165 217.909 485.938 214.379 481.665 212.045C477.422 209.682 472.15 208.5 465.847 208.5H451.483V272.409ZM526.642 287V217.182H542.597V228.818H543.324C544.597 224.788 546.778 221.682 549.869 219.5C552.991 217.288 556.551 216.182 560.551 216.182C561.46 216.182 562.475 216.227 563.597 216.318C564.748 216.379 565.703 216.485 566.46 216.636V231.773C565.763 231.53 564.657 231.318 563.142 231.136C561.657 230.924 560.218 230.818 558.824 230.818C555.824 230.818 553.127 231.47 550.733 232.773C548.369 234.045 546.506 235.818 545.142 238.091C543.778 240.364 543.097 242.985 543.097 245.955V287H526.642ZM605.426 288.364C598.426 288.364 592.381 286.909 587.29 284C582.229 281.061 578.335 276.909 575.608 271.545C572.881 266.152 571.517 259.803 571.517 252.5C571.517 245.318 572.881 239.015 575.608 233.591C578.366 228.136 582.214 223.894 587.153 220.864C592.093 217.803 597.896 216.273 604.562 216.273C608.866 216.273 612.926 216.97 616.744 218.364C620.593 219.727 623.987 221.848 626.926 224.727C629.896 227.606 632.229 231.273 633.926 235.727C635.623 240.152 636.472 245.424 636.472 251.545V256.591H579.244V245.5H620.699C620.669 242.348 619.987 239.545 618.653 237.091C617.32 234.606 615.456 232.652 613.062 231.227C610.699 229.803 607.941 229.091 604.79 229.091C601.426 229.091 598.472 229.909 595.926 231.545C593.381 233.152 591.396 235.273 589.972 237.909C588.578 240.515 587.866 243.379 587.835 246.5V256.182C587.835 260.242 588.578 263.727 590.062 266.636C591.547 269.515 593.623 271.727 596.29 273.273C598.956 274.788 602.078 275.545 605.653 275.545C608.047 275.545 610.214 275.212 612.153 274.545C614.093 273.848 615.775 272.833 617.199 271.5C618.623 270.167 619.699 268.515 620.426 266.545L635.79 268.273C634.82 272.333 632.972 275.879 630.244 278.909C627.547 281.909 624.093 284.242 619.881 285.909C615.669 287.545 610.85 288.364 605.426 288.364ZM666.847 246.091V287H650.392V193.909H666.483V229.045H667.301C668.938 225.106 671.468 222 674.892 219.727C678.347 217.424 682.741 216.273 688.074 216.273C692.922 216.273 697.15 217.288 700.756 219.318C704.362 221.348 707.15 224.318 709.119 228.227C711.119 232.136 712.119 236.909 712.119 242.545V287H695.665V245.091C695.665 240.394 694.453 236.742 692.028 234.136C689.634 231.5 686.271 230.182 681.938 230.182C679.028 230.182 676.422 230.818 674.119 232.091C671.847 233.333 670.059 235.136 668.756 237.5C667.483 239.864 666.847 242.727 666.847 246.091ZM763.756 217.182V229.909H723.619V217.182H763.756ZM733.528 200.455H749.983V266C749.983 268.212 750.316 269.909 750.983 271.091C751.68 272.242 752.589 273.03 753.71 273.455C754.831 273.879 756.074 274.091 757.438 274.091C758.468 274.091 759.407 274.015 760.256 273.864C761.134 273.712 761.801 273.576 762.256 273.455L765.028 286.318C764.15 286.621 762.892 286.955 761.256 287.318C759.65 287.682 757.68 287.894 755.347 287.955C751.225 288.076 747.513 287.455 744.21 286.091C740.907 284.697 738.286 282.545 736.347 279.636C734.438 276.727 733.498 273.091 733.528 268.727V200.455ZM807.676 288.364C800.676 288.364 794.631 286.909 789.54 284C784.479 281.061 780.585 276.909 777.858 271.545C775.131 266.152 773.767 259.803 773.767 252.5C773.767 245.318 775.131 239.015 777.858 233.591C780.616 228.136 784.464 223.894 789.403 220.864C794.343 217.803 800.146 216.273 806.812 216.273C811.116 216.273 815.176 216.97 818.994 218.364C822.843 219.727 826.237 221.848 829.176 224.727C832.146 227.606 834.479 231.273 836.176 235.727C837.873 240.152 838.722 245.424 838.722 251.545V256.591H781.494V245.5H822.949C822.919 242.348 822.237 239.545 820.903 237.091C819.57 234.606 817.706 232.652 815.312 231.227C812.949 229.803 810.191 229.091 807.04 229.091C803.676 229.091 800.722 229.909 798.176 231.545C795.631 233.152 793.646 235.273 792.222 237.909C790.828 240.515 790.116 243.379 790.085 246.5V256.182C790.085 260.242 790.828 263.727 792.312 266.636C793.797 269.515 795.873 271.727 798.54 273.273C801.206 274.788 804.328 275.545 807.903 275.545C810.297 275.545 812.464 275.212 814.403 274.545C816.343 273.848 818.025 272.833 819.449 271.5C820.873 270.167 821.949 268.515 822.676 266.545L838.04 268.273C837.07 272.333 835.222 275.879 832.494 278.909C829.797 281.909 826.343 284.242 822.131 285.909C817.919 287.545 813.1 288.364 807.676 288.364ZM869.097 193.909V287H852.642V193.909H869.097ZM902.472 193.909V287H886.017V193.909H902.472ZM950.301 288.364C943.301 288.364 937.256 286.909 932.165 284C927.104 281.061 923.21 276.909 920.483 271.545C917.756 266.152 916.392 259.803 916.392 252.5C916.392 245.318 917.756 239.015 920.483 233.591C923.241 228.136 927.089 223.894 932.028 220.864C936.968 217.803 942.771 216.273 949.438 216.273C953.741 216.273 957.801 216.97 961.619 218.364C965.468 219.727 968.862 221.848 971.801 224.727C974.771 227.606 977.104 231.273 978.801 235.727C980.498 240.152 981.347 245.424 981.347 251.545V256.591H924.119V245.5H965.574C965.544 242.348 964.862 239.545 963.528 237.091C962.195 234.606 960.331 232.652 957.938 231.227C955.574 229.803 952.816 229.091 949.665 229.091C946.301 229.091 943.347 229.909 940.801 231.545C938.256 233.152 936.271 235.273 934.847 237.909C933.453 240.515 932.741 243.379 932.71 246.5V256.182C932.71 260.242 933.453 263.727 934.938 266.636C936.422 269.515 938.498 271.727 941.165 273.273C943.831 274.788 946.953 275.545 950.528 275.545C952.922 275.545 955.089 275.212 957.028 274.545C958.968 273.848 960.65 272.833 962.074 271.5C963.498 270.167 964.574 268.515 965.301 266.545L980.665 268.273C979.695 272.333 977.847 275.879 975.119 278.909C972.422 281.909 968.968 284.242 964.756 285.909C960.544 287.545 955.725 288.364 950.301 288.364ZM995.267 287V217.182H1011.22V228.818H1011.95C1013.22 224.788 1015.4 221.682 1018.49 219.5C1021.62 217.288 1025.18 216.182 1029.18 216.182C1030.09 216.182 1031.1 216.227 1032.22 216.318C1033.37 216.379 1034.33 216.485 1035.09 216.636V231.773C1034.39 231.53 1033.28 231.318 1031.77 231.136C1030.28 230.924 1028.84 230.818 1027.45 230.818C1024.45 230.818 1021.75 231.47 1019.36 232.773C1016.99 234.045 1015.13 235.818 1013.77 238.091C1012.4 240.364 1011.72 242.985 1011.72 245.955V287H995.267Z" fill="#868686"/>
<path fill-rule="evenodd" clip-rule="evenodd" d="M643 15C643 6.71573 649.716 0 658 0H706C714.284 0 721 6.71573 721 15V45H702C693.716 45 687 51.7157 687 60V119C687 127.284 693.716 134 702 134H721V164C721 172.284 714.284 179 706 179H658C649.716 179 643 172.284 643 164V15Z" fill="#868686"/>
<circle cx="731.5" cy="89.5" r="33.5" fill="#868686"/>
<path fill-rule="evenodd" clip-rule="evenodd" d="M757 0C748.716 0 742 6.71573 742 15V45H762C770.284 45 777 51.7157 777 60V119C777 127.284 770.284 134 762 134H742V164C742 172.284 748.716 179 757 179H805C813.284 179 820 172.284 820 164V15C820 6.71573 813.284 0 805 0H757Z" fill="#868686"/>
</svg>
